<svg xmlns="http://www.w3.org/2000/svg" viewBox="0 0 129 122" width="129" height="122"><style>tspan { white-space:pre }.shp0 { fill: #000000;stroke: #000000;stroke-width: 0.334 } </style><g ><path fill-rule="evenodd" class="shp0" d="M6.92 0.86C6.92 0.86 4.97 2.98 3.78 4.42C2 6.54 0.98 7.9 0.98 7.9L29.64 7.9C29.64 7.9 31 7.9 32.27 8.66C33.62 9.34 34.22 11.04 34.22 11.04L53.8 53.68L16.84 93.87C16.84 93.87 11.84 99.89 12.69 106.25C12.69 106.25 13.19 111.93 15.06 114.73C17.01 117.52 21.42 120.92 24.81 120.66C28.2 120.32 33.2 117.27 34.47 114.73C35.83 112.27 37.02 107.86 37.02 105.32C37.02 103.54 36.85 102.69 36.25 101.5C35.66 100.4 33.46 98.11 33.29 97.09C33.2 96.07 32.69 93.28 33.88 91.84C35.07 90.31 34.39 90.9 34.39 90.9L58.64 65.04L68.64 84.88C68.64 84.88 71.78 90.06 74.66 91.67C77.63 93.28 80.85 94.63 83.22 94.72C85.6 94.89 85.26 94.72 85.26 94.72L125.79 94.72L128.58 88.11L109.42 88.11C109.42 88.11 106.62 87.26 105.78 86.33C104.85 85.48 104.08 84.46 104.08 84.46L82.8 38.08L110.61 7.31C110.61 7.31 111.63 6.29 112.48 5.95C113.41 5.7 113.83 5.44 113.83 5.44L117.65 4.85L117.65 0.95L90.01 0.95L90.01 3.92C90.01 3.92 94.25 3.92 95.6 5.1C96.88 6.29 97.04 7.31 97.04 7.31L97.04 8.24L78.39 27.91L65 0.86L6.92 0.86Z" /></g></svg>