<?xml version="1.0" standalone="no"?>
<!DOCTYPE svg PUBLIC "-//W3C//DTD SVG 20010904//EN"
 "http://www.w3.org/TR/2001/REC-SVG-20010904/DTD/svg10.dtd">
<svg version="1.0" xmlns="http://www.w3.org/2000/svg"
 width="550.000000pt" height="550.000000pt" viewBox="0 0 550.000000 550.000000"
 preserveAspectRatio="xMidYMid meet">
<metadata>
Created by potrace 1.11, written by Peter Selinger 2001-2013
</metadata>
<g transform="translate(0.000000,550.000000) scale(0.100000,-0.100000)"
fill="#000000" stroke="none">
<path d="M2530 5489 c-77 -8 -206 -28 -410 -64 -8 -1 -22 -5 -30 -8 -8 -3 -58
-18 -110 -32 -154 -43 -297 -98 -452 -176 -43 -21 -78 -35 -78 -31 0 4 -4 2
-8 -4 -4 -6 -29 -24 -57 -39 -27 -16 -75 -46 -106 -66 -31 -21 -59 -35 -63
-32 -3 4 -6 2 -6 -3 0 -6 -14 -21 -31 -33 -18 -13 -28 -17 -24 -10 5 8 -6 -1
-23 -20 -19 -19 -38 -31 -46 -28 -11 4 -13 1 -9 -11 3 -9 2 -14 -2 -10 -5 5
-14 -1 -22 -12 -8 -11 -20 -20 -27 -20 -8 0 -16 -7 -20 -15 -3 -8 -9 -14 -13
-13 -4 2 -25 -15 -45 -36 -21 -22 -38 -37 -38 -33 0 3 -44 -39 -97 -93 -88
-88 -135 -140 -198 -218 -11 -13 -30 -35 -41 -48 -12 -12 -19 -25 -17 -28 3
-3 -2 -8 -11 -12 -9 -3 -16 -11 -16 -16 0 -17 -37 -58 -45 -50 -5 4 -5 2 -1
-5 4 -7 -2 -21 -14 -33 -11 -11 -19 -23 -19 -26 1 -3 -3 -13 -9 -23 -45 -65
-70 -105 -110 -180 -25 -47 -51 -89 -56 -93 -6 -4 -8 -8 -3 -8 4 0 -3 -19 -15
-42 -12 -24 -22 -45 -23 -48 -1 -15 -28 -70 -34 -70 -4 0 -7 -8 -8 -17 -1 -10
-23 -81 -50 -158 -43 -123 -97 -332 -108 -420 -3 -16 -10 -61 -17 -100 -17
-93 -17 -576 0 -705 22 -161 59 -329 109 -480 25 -80 46 -148 45 -152 -1 -5 3
-8 8 -8 6 0 10 -8 10 -18 0 -10 11 -40 24 -68 13 -27 29 -66 37 -86 7 -21 17
-38 22 -38 4 0 5 -4 2 -10 -3 -5 -2 -10 3 -10 9 0 59 -103 51 -108 -2 -2 4 -8
14 -13 9 -6 15 -14 12 -20 -4 -5 -2 -9 3 -9 8 0 23 -35 21 -49 0 -2 4 -7 9
-10 5 -3 29 -37 54 -76 25 -38 68 -101 96 -138 29 -37 52 -69 52 -71 0 -13
307 -328 382 -392 56 -49 187 -146 245 -183 29 -18 53 -37 53 -43 0 -5 4 -7 9
-3 5 3 12 1 15 -4 3 -4 30 -21 61 -36 30 -16 55 -32 55 -37 0 -5 4 -7 9 -3 5
3 15 0 23 -7 7 -7 20 -14 28 -16 8 -2 17 -8 18 -13 2 -5 7 -7 12 -4 5 3 16 -3
26 -12 10 -10 18 -17 18 -15 1 2 30 -10 66 -26 36 -16 82 -35 102 -42 20 -8
35 -17 32 -22 -3 -4 2 -5 11 -2 8 4 26 -1 40 -10 14 -9 25 -14 25 -11 0 3 16
-1 36 -10 57 -23 279 -83 389 -104 252 -48 692 -54 928 -12 237 42 480 112
642 186 142 64 194 89 260 125 39 21 73 39 77 40 4 0 20 12 34 25 15 14 33 25
40 25 8 0 14 5 14 12 0 6 3 9 6 6 3 -3 17 5 31 18 14 13 29 21 33 19 4 -3 11
2 14 11 3 8 10 12 16 9 5 -3 10 -2 10 3 0 5 21 24 48 42 26 19 49 36 52 40 3
3 21 17 41 32 19 14 58 49 87 76 29 28 52 48 52 46 0 -6 136 135 185 192 22
25 50 57 61 69 12 13 19 26 17 29 -3 3 2 8 11 12 9 3 16 11 16 17 0 6 7 17 15
26 46 51 53 60 48 65 -3 3 2 8 11 12 9 3 16 10 16 15 0 12 42 73 53 77 4 2 7
10 7 17 0 8 6 20 13 27 7 7 35 54 62 103 27 50 56 104 65 120 9 17 22 47 29
68 7 20 17 37 22 37 5 0 8 3 7 8 -1 7 12 44 31 87 70 156 153 487 181 730 13
105 16 359 6 482 -22 284 -54 442 -138 683 -61 176 -67 189 -105 270 -20 41
-36 81 -36 88 0 6 -3 10 -5 7 -3 -3 -19 23 -35 58 -17 34 -34 64 -37 67 -4 3
-13 19 -22 35 -23 47 -79 135 -120 190 -21 27 -38 56 -38 63 0 6 -4 12 -8 12
-8 0 -114 124 -120 140 -4 11 -261 268 -272 272 -11 4 -95 73 -132 110 -16 14
-28 24 -28 21 0 -2 -21 11 -47 30 -81 59 -167 114 -190 121 -13 4 -23 12 -23
17 0 5 -7 9 -15 9 -8 0 -15 4 -15 10 0 5 -4 9 -8 7 -12 -3 -82 36 -82 46 0 4
-4 6 -9 2 -5 -3 -17 2 -25 11 -9 8 -16 13 -16 11 0 -3 -27 8 -60 24 -33 16
-62 29 -64 29 -2 0 -21 8 -42 17 -22 9 -41 17 -44 18 -3 1 -12 5 -20 8 -37 16
-265 88 -341 107 -224 58 -637 91 -859 69z m468 -722 c17 -1 32 -4 32 -8 0 -4
10 -7 23 -7 54 0 87 -6 87 -14 0 -5 5 -6 10 -3 6 3 16 3 22 -2 11 -6 36 -11
86 -15 6 -1 12 -5 12 -10 0 -4 3 -7 8 -7 4 1 9 0 12 -1 3 -1 18 -4 33 -6 28
-5 162 -50 207 -69 3 -2 15 -6 28 -10 12 -4 22 -11 22 -16 0 -5 3 -8 8 -7 11
4 72 -26 72 -35 0 -5 3 -6 8 -4 4 3 24 -5 44 -16 151 -89 204 -122 224 -142
12 -13 24 -21 27 -19 2 2 21 -12 41 -31 21 -19 41 -35 45 -35 3 0 27 -22 54
-49 26 -27 47 -48 47 -46 0 3 19 -17 43 -42 23 -26 54 -58 70 -71 15 -13 27
-28 27 -32 0 -5 12 -21 28 -37 15 -15 36 -41 47 -57 11 -15 35 -48 53 -72 18
-24 29 -44 25 -44 -4 0 -3 -4 3 -8 23 -15 141 -227 136 -244 -1 -5 2 -8 6 -8
9 0 37 -70 34 -82 -1 -5 2 -8 8 -8 6 0 9 -3 8 -7 0 -5 1 -15 5 -23 13 -36 30
-95 26 -96 -2 0 1 -7 7 -15 10 -12 24 -56 30 -94 1 -5 3 -12 4 -15 3 -9 11
-44 14 -60 1 -9 5 -20 8 -25 3 -6 4 -18 3 -27 -2 -10 1 -18 6 -18 5 0 9 -10 9
-22 0 -41 5 -83 11 -93 3 -5 5 -27 4 -47 -1 -21 1 -38 4 -38 4 0 6 -83 6 -185
1 -102 -2 -185 -5 -185 -3 0 -5 -17 -6 -38 -1 -34 -7 -85 -20 -157 -3 -16 -6
-37 -7 -45 -2 -9 -6 -20 -9 -25 -3 -6 -4 -18 -3 -27 2 -10 0 -18 -4 -18 -4 0
-8 -6 -9 -12 -3 -43 -7 -58 -15 -58 -4 0 -5 -4 -2 -10 3 -5 1 -19 -5 -31 -7
-11 -14 -33 -16 -47 -3 -15 -9 -31 -13 -37 -5 -5 -14 -27 -21 -48 -13 -42
-108 -239 -119 -247 -3 -3 -7 -11 -9 -19 -10 -48 -222 -329 -328 -435 -80 -79
-241 -208 -343 -274 -104 -67 -359 -192 -391 -192 -6 0 -10 -5 -10 -11 0 -5
-4 -8 -9 -5 -5 3 -26 -1 -47 -10 -21 -9 -50 -18 -64 -20 -14 -3 -37 -9 -51
-15 -14 -5 -39 -11 -55 -13 -16 -2 -29 -5 -29 -6 0 -2 -32 -9 -80 -16 -22 -3
-53 -7 -70 -10 -57 -9 -120 -15 -202 -18 l-83 -4 0 2033 0 2032 108 -4 c59 -2
122 -5 140 -6z"/>
</g>
</svg>
